<svg xmlns="http://www.w3.org/2000/svg" xmlns:xlink="http://www.w3.org/1999/xlink" zoomAndPan="magnify" preserveAspectRatio="xMidYMid meet" version="1.0" style="background-color:transparent;" viewBox="52.4 87.2 282.92 158.77">
  <defs fill="#ffffff">
    <g/>
    <clipPath id="876fab1de4" fill="#ffffff">
      <rect x="0" width="198" y="0" height="119" fill="#ffffff"/>
    </clipPath>
    <clipPath id="cd7c6f81e2" fill="#ffffff">
      <rect x="0" width="293" y="0" height="126" fill="#ffffff"/>
    </clipPath>
  </defs>
  <rect x="-37.5" width="450" fill="none" y="-37.499999" height="449.999989" fill-opacity="1"/>
  <rect x="-37.5" width="450" fill="none" y="-37.499999" height="449.999989" fill-opacity="1"/>
  <g transform="matrix(1, 0, 0, 1, 143, 162)">
    <g clip-path="url(#876fab1de4)">
      <g fill="#001640" fill-opacity="1">
        <g transform="translate(2.114335, 82.534737)">
          <g>
            <path d="M 13.125 -10.71875 C 14.8125 -10.71875 16.234375 -10.132812 17.390625 -8.96875 C 18.554688 -7.800781 19.140625 -6.378906 19.140625 -4.703125 C 19.140625 -3.015625 18.554688 -1.566406 17.390625 -0.359375 C 16.234375 0.835938 14.8125 1.4375 13.125 1.4375 C 11.4375 1.4375 9.988281 0.835938 8.78125 -0.359375 C 7.582031 -1.566406 6.984375 -3.015625 6.984375 -4.703125 C 6.984375 -6.378906 7.582031 -7.800781 8.78125 -8.96875 C 9.988281 -10.132812 11.4375 -10.71875 13.125 -10.71875 Z M 13.125 -10.71875 " fill="#ffffff"/>
          </g>
        </g>
      </g>
      <g fill="#001640" fill-opacity="1">
        <g transform="translate(23.539087, 82.534737)">
          <g>
            <path d="M 26 -67.546875 L 28.046875 -67.546875 L 24.796875 -53.21875 L 32.984375 -53.21875 L 32.15625 -49.609375 L 23.953125 -49.609375 L 14.5625 -9.15625 C 14.40625 -8.507812 14.328125 -7.863281 14.328125 -7.21875 C 14.328125 -5.78125 14.769531 -5.0625 15.65625 -5.0625 C 17.414062 -5.0625 20.0625 -7.507812 23.59375 -12.40625 L 26 -12.40625 C 23.113281 -8.070312 20.242188 -4.679688 17.390625 -2.234375 C 14.546875 0.210938 12 1.4375 9.75 1.4375 C 8.382812 1.4375 7.257812 0.9375 6.375 -0.0625 C 5.5 -1.0625 5.0625 -2.363281 5.0625 -3.96875 C 5.0625 -5.570312 5.625 -8.820312 6.75 -13.71875 L 15.046875 -49.609375 L 8.0625 -49.609375 L 8.671875 -52.140625 C 11.960938 -53.179688 15.148438 -55.101562 18.234375 -57.90625 C 21.328125 -60.71875 23.914062 -63.929688 26 -67.546875 Z M 26 -67.546875 " fill="#ffffff"/>
          </g>
        </g>
      </g>
      <g fill="#001640" fill-opacity="1">
        <g transform="translate(44.963839, 82.534737)">
          <g>
            <path d="M 32.75 -54.671875 C 35.476562 -54.671875 37.703125 -53.882812 39.421875 -52.3125 C 41.148438 -50.75 42.015625 -48.722656 42.015625 -46.234375 C 42.015625 -43.671875 41.070312 -40.863281 39.1875 -37.8125 C 37.300781 -34.757812 34.351562 -31.945312 30.34375 -29.375 C 26.332031 -26.8125 21.394531 -24.96875 15.53125 -23.84375 C 15.289062 -20.707031 15.171875 -18.738281 15.171875 -17.9375 C 15.171875 -13.84375 15.8125 -10.570312 17.09375 -8.125 C 18.382812 -5.675781 20.113281 -4.453125 22.28125 -4.453125 C 24.445312 -4.453125 26.550781 -5.175781 28.59375 -6.625 C 30.644531 -8.070312 32.710938 -9.878906 34.796875 -12.046875 L 36.359375 -10.71875 C 31.941406 -6.144531 28.445312 -2.972656 25.875 -1.203125 C 23.3125 0.554688 20.503906 1.4375 17.453125 1.4375 C 13.679688 1.4375 10.734375 -0.0625 8.609375 -3.0625 C 6.484375 -6.070312 5.421875 -10.148438 5.421875 -15.296875 C 5.421875 -20.429688 6.703125 -26.128906 9.265625 -32.390625 C 11.835938 -38.648438 15.207031 -43.925781 19.375 -48.21875 C 23.550781 -52.519531 28.007812 -54.671875 32.75 -54.671875 Z M 16.140625 -26.375 C 19.910156 -27.09375 23.160156 -28.632812 25.890625 -31 C 28.617188 -33.375 30.644531 -36.046875 31.96875 -39.015625 C 33.289062 -41.984375 33.953125 -44.789062 33.953125 -47.4375 C 33.953125 -48.800781 33.671875 -49.90625 33.109375 -50.75 C 32.546875 -51.59375 31.664062 -52.015625 30.46875 -52.015625 C 27.332031 -52.015625 24.457031 -49.242188 21.84375 -43.703125 C 19.238281 -38.171875 17.335938 -32.394531 16.140625 -26.375 Z M 16.140625 -26.375 " fill="#ffffff"/>
          </g>
        </g>
      </g>
      <g fill="#001640" fill-opacity="1">
        <g transform="translate(77.704248, 82.534737)">
          <g>
            <path d="M 27.9375 -54.671875 C 30.257812 -54.671875 31.960938 -53.847656 33.046875 -52.203125 C 34.128906 -50.554688 34.832031 -48.164062 35.15625 -45.03125 L 35.15625 -44.90625 L 35.40625 -44.90625 L 37.203125 -52.859375 L 45.875 -54.671875 L 36.484375 -13.484375 C 35.679688 -10.671875 35.28125 -8.460938 35.28125 -6.859375 C 35.28125 -6.460938 35.378906 -6.101562 35.578125 -5.78125 C 35.773438 -5.457031 36.035156 -5.296875 36.359375 -5.296875 C 37.085938 -5.296875 37.910156 -5.796875 38.828125 -6.796875 C 39.753906 -7.804688 41.179688 -9.632812 43.109375 -12.28125 L 44.671875 -11.203125 C 41.535156 -6.703125 38.90625 -3.46875 36.78125 -1.5 C 34.65625 0.457031 32.75 1.4375 31.0625 1.4375 C 29.78125 1.4375 28.773438 0.914062 28.046875 -0.125 C 27.328125 -1.164062 26.96875 -2.566406 26.96875 -4.328125 C 26.96875 -5.535156 27.144531 -7.300781 27.5 -9.625 C 27.863281 -11.957031 28.289062 -14.085938 28.78125 -16.015625 L 28.53125 -16.25 C 25.476562 -9.914062 22.664062 -5.382812 20.09375 -2.65625 C 17.53125 0.0703125 14.96875 1.4375 12.40625 1.4375 C 9.507812 1.4375 7.175781 0.113281 5.40625 -2.53125 C 3.644531 -5.175781 2.765625 -8.75 2.765625 -13.25 C 2.765625 -19.101562 4.171875 -25.28125 6.984375 -31.78125 C 9.796875 -38.289062 13.207031 -43.734375 17.21875 -48.109375 C 21.226562 -52.484375 24.800781 -54.671875 27.9375 -54.671875 Z M 12.046875 -15.765625 C 12.046875 -9.503906 13.609375 -6.375 16.734375 -6.375 C 18.421875 -6.375 20.285156 -7.597656 22.328125 -10.046875 C 24.378906 -12.492188 26.207031 -15.609375 27.8125 -19.390625 C 29.5 -23.484375 30.882812 -27.816406 31.96875 -32.390625 C 33.050781 -36.960938 33.59375 -40.734375 33.59375 -43.703125 C 33.59375 -46.035156 33.085938 -48.003906 32.078125 -49.609375 C 31.078125 -51.210938 29.734375 -52.015625 28.046875 -52.015625 C 25.640625 -52.015625 23.171875 -50.003906 20.640625 -45.984375 C 18.117188 -41.972656 16.054688 -37.097656 14.453125 -31.359375 C 12.847656 -25.617188 12.046875 -20.421875 12.046875 -15.765625 Z M 12.046875 -15.765625 " fill="#ffffff"/>
          </g>
        </g>
      </g>
      <g fill="#001640" fill-opacity="1">
        <g transform="translate(116.704344, 82.534737)">
          <g>
            <path d="M 17.578125 -27.21875 L 17.8125 -26.96875 C 21.90625 -35.476562 26.117188 -42.222656 30.453125 -47.203125 C 34.796875 -52.179688 38.691406 -54.671875 42.140625 -54.671875 C 44.066406 -54.671875 45.570312 -54.023438 46.65625 -52.734375 C 47.738281 -51.453125 48.28125 -49.644531 48.28125 -47.3125 C 48.28125 -45.632812 48 -43.671875 47.4375 -41.421875 L 44.0625 -27.21875 L 44.3125 -26.96875 C 49.53125 -37 54.082031 -44.125 57.96875 -48.34375 C 61.863281 -52.5625 65.378906 -54.671875 68.515625 -54.671875 C 70.359375 -54.671875 71.859375 -54.046875 73.015625 -52.796875 C 74.179688 -51.554688 74.765625 -49.851562 74.765625 -47.6875 C 74.765625 -46.800781 74.703125 -45.957031 74.578125 -45.15625 C 74.460938 -44.351562 74.304688 -43.609375 74.109375 -42.921875 C 73.910156 -42.242188 73.769531 -41.703125 73.6875 -41.296875 L 66.46875 -10.234375 C 65.976562 -8.304688 65.734375 -7.144531 65.734375 -6.75 C 65.734375 -6.425781 65.851562 -6.160156 66.09375 -5.953125 C 66.34375 -5.753906 66.628906 -5.65625 66.953125 -5.65625 C 68.316406 -5.65625 70.679688 -8.066406 74.046875 -12.890625 L 75.609375 -12.046875 C 72.316406 -7.148438 69.566406 -3.675781 67.359375 -1.625 C 65.160156 0.414062 63.132812 1.4375 61.28125 1.4375 C 59.914062 1.4375 58.789062 0.957031 57.90625 0 C 57.03125 -0.957031 56.59375 -2.320312 56.59375 -4.09375 C 56.59375 -6.019531 56.832031 -7.828125 57.3125 -9.515625 L 64.90625 -41.78125 C 65.144531 -42.5 65.265625 -43.421875 65.265625 -44.546875 C 65.265625 -46.316406 64.617188 -47.203125 63.328125 -47.203125 C 61.242188 -47.203125 58.675781 -45.191406 55.625 -41.171875 C 52.5 -37.003906 49.429688 -32.085938 46.421875 -26.421875 C 43.410156 -20.765625 41.625 -16.691406 41.0625 -14.203125 L 37.8125 0 L 28.890625 0 L 37.6875 -38.046875 C 37.84375 -38.609375 38.101562 -39.609375 38.46875 -41.046875 C 38.832031 -42.492188 39.015625 -43.539062 39.015625 -44.1875 C 39.015625 -46.195312 38.25 -47.203125 36.71875 -47.203125 C 34.550781 -47.203125 31.503906 -44.550781 27.578125 -39.25 C 24.765625 -35.394531 22.050781 -30.898438 19.4375 -25.765625 C 16.832031 -20.628906 15.207031 -16.695312 14.5625 -13.96875 L 11.3125 0 L 2.40625 0 L 11.796875 -40.8125 C 12.359375 -43.0625 12.640625 -44.910156 12.640625 -46.359375 C 12.640625 -47.484375 12.273438 -48.363281 11.546875 -49 C 10.828125 -49.644531 9.628906 -50.046875 7.953125 -50.203125 L 8.421875 -52.140625 L 22.03125 -54.671875 L 23.953125 -54.671875 Z M 17.578125 -27.21875 " fill="#ffffff"/>
          </g>
        </g>
      </g>
    </g>
  </g>
  <g transform="matrix(1, 0, 0, 1, 48, 84)">
    <g clip-path="url(#cd7c6f81e2)">
      <g fill="#001640" fill-opacity="1">
        <g transform="translate(1.50731, 89.04825)">
          <g>
            <path d="M 37.453125 -83.921875 C 40.179688 -83.921875 42.585938 -83.578125 44.671875 -82.890625 C 46.753906 -82.210938 48.84375 -81.351562 50.9375 -80.3125 C 52.863281 -79.34375 54.226562 -78.859375 55.03125 -78.859375 C 55.832031 -78.859375 56.429688 -79.238281 56.828125 -80 C 57.234375 -80.769531 57.554688 -82.078125 57.796875 -83.921875 L 59.84375 -83.921875 L 61.28125 -56.828125 L 59.125 -56.828125 C 58.5625 -63.890625 56.410156 -69.507812 52.671875 -73.6875 C 48.941406 -77.863281 44.226562 -79.953125 38.53125 -79.953125 C 23.757812 -79.953125 16.375 -66.1875 16.375 -38.65625 C 16.375 -26.050781 18.476562 -16.859375 22.6875 -11.078125 C 26.90625 -5.296875 32.664062 -2.40625 39.96875 -2.40625 C 44.707031 -2.40625 48.742188 -3.6875 52.078125 -6.25 C 55.410156 -8.820312 58.476562 -12.878906 61.28125 -18.421875 L 63.21875 -17.453125 C 57.519531 -4.609375 48.648438 1.8125 36.609375 1.8125 C 30.828125 1.8125 25.347656 0.25 20.171875 -2.875 C 14.992188 -6.007812 10.816406 -10.644531 7.640625 -16.78125 C 4.472656 -22.925781 2.890625 -30.253906 2.890625 -38.765625 C 2.890625 -47.359375 4.394531 -55.085938 7.40625 -61.953125 C 10.414062 -68.816406 14.546875 -74.191406 19.796875 -78.078125 C 25.054688 -81.972656 30.941406 -83.921875 37.453125 -83.921875 Z M 37.453125 -83.921875 " fill="#ffffff"/>
          </g>
        </g>
      </g>
      <g fill="#001640" fill-opacity="1">
        <g transform="translate(58.082799, 89.04825)">
          <g>
            <path d="M 27.328125 -56.71875 C 31.660156 -56.71875 35.53125 -55.488281 38.9375 -53.03125 C 42.351562 -50.582031 45.023438 -47.191406 46.953125 -42.859375 C 48.878906 -38.523438 49.84375 -33.550781 49.84375 -27.9375 C 49.84375 -22.238281 48.859375 -17.140625 46.890625 -12.640625 C 44.929688 -8.148438 42.1875 -4.640625 38.65625 -2.109375 C 35.125 0.421875 31.109375 1.6875 26.609375 1.6875 C 22.191406 1.6875 18.273438 0.460938 14.859375 -1.984375 C 11.453125 -4.429688 8.785156 -7.863281 6.859375 -12.28125 C 4.929688 -16.695312 3.96875 -21.753906 3.96875 -27.453125 C 3.96875 -33.148438 4.972656 -38.207031 6.984375 -42.625 C 8.992188 -47.039062 11.765625 -50.492188 15.296875 -52.984375 C 18.828125 -55.472656 22.835938 -56.71875 27.328125 -56.71875 Z M 15.171875 -30.9375 C 15.171875 -22.113281 16.171875 -15.128906 18.171875 -9.984375 C 20.179688 -4.847656 23.316406 -2.28125 27.578125 -2.28125 C 31.671875 -2.28125 34.539062 -4.25 36.1875 -8.1875 C 37.832031 -12.125 38.65625 -17.539062 38.65625 -24.4375 C 38.65625 -34.476562 37.570312 -41.703125 35.40625 -46.109375 C 33.238281 -50.523438 30.144531 -52.734375 26.125 -52.734375 C 22.269531 -52.734375 19.476562 -50.828125 17.75 -47.015625 C 16.03125 -43.203125 15.171875 -37.84375 15.171875 -30.9375 Z M 15.171875 -30.9375 " fill="#ffffff"/>
          </g>
        </g>
      </g>
      <g fill="#001640" fill-opacity="1">
        <g transform="translate(103.342631, 89.04825)">
          <g>
            <path d="M 18.296875 -45.875 L 18.546875 -46 C 21.753906 -50.164062 24.359375 -52.992188 26.359375 -54.484375 C 28.367188 -55.972656 30.859375 -56.71875 33.828125 -56.71875 C 37.441406 -56.71875 40.3125 -55.332031 42.4375 -52.5625 C 44.570312 -49.789062 45.640625 -45.914062 45.640625 -40.9375 L 45.640625 -10.84375 C 45.640625 -8.832031 46.054688 -6.898438 46.890625 -5.046875 C 47.734375 -3.203125 49.28125 -2.203125 51.53125 -2.046875 L 51.53125 0 L 28.890625 0 L 28.890625 -2.046875 C 31.222656 -2.046875 32.988281 -2.75 34.1875 -4.15625 C 35.394531 -5.5625 36 -7.789062 36 -10.84375 L 36 -38.765625 C 36 -43.097656 35.359375 -45.988281 34.078125 -47.4375 C 32.796875 -48.882812 31.109375 -49.609375 29.015625 -49.609375 C 27.085938 -49.609375 25.359375 -49.085938 23.828125 -48.046875 C 22.304688 -47.003906 20.460938 -45.078125 18.296875 -42.265625 L 18.296875 -10.109375 C 18.296875 -7.867188 18.859375 -5.984375 19.984375 -4.453125 C 21.109375 -2.929688 22.875 -2.128906 25.28125 -2.046875 L 25.28125 0 L 2.046875 0 L 2.046875 -2.046875 C 6.460938 -2.046875 8.671875 -4.976562 8.671875 -10.84375 L 8.671875 -71.15625 C 8.671875 -73.726562 8.269531 -75.453125 7.46875 -76.328125 C 6.664062 -77.210938 5.617188 -77.65625 4.328125 -77.65625 C 4.171875 -77.65625 3.53125 -77.535156 2.40625 -77.296875 L 1.6875 -79.234375 L 16.140625 -85.84375 L 18.296875 -85.84375 Z M 18.296875 -45.875 " fill="#ffffff"/>
          </g>
        </g>
      </g>
      <g fill="#001640" fill-opacity="1">
        <g transform="translate(148.602464, 89.04825)">
          <g>
            <path d="M 27.328125 -56.71875 C 31.660156 -56.71875 35.53125 -55.488281 38.9375 -53.03125 C 42.351562 -50.582031 45.023438 -47.191406 46.953125 -42.859375 C 48.878906 -38.523438 49.84375 -33.550781 49.84375 -27.9375 C 49.84375 -22.238281 48.859375 -17.140625 46.890625 -12.640625 C 44.929688 -8.148438 42.1875 -4.640625 38.65625 -2.109375 C 35.125 0.421875 31.109375 1.6875 26.609375 1.6875 C 22.191406 1.6875 18.273438 0.460938 14.859375 -1.984375 C 11.453125 -4.429688 8.785156 -7.863281 6.859375 -12.28125 C 4.929688 -16.695312 3.96875 -21.753906 3.96875 -27.453125 C 3.96875 -33.148438 4.972656 -38.207031 6.984375 -42.625 C 8.992188 -47.039062 11.765625 -50.492188 15.296875 -52.984375 C 18.828125 -55.472656 22.835938 -56.71875 27.328125 -56.71875 Z M 15.171875 -30.9375 C 15.171875 -22.113281 16.171875 -15.128906 18.171875 -9.984375 C 20.179688 -4.847656 23.316406 -2.28125 27.578125 -2.28125 C 31.671875 -2.28125 34.539062 -4.25 36.1875 -8.1875 C 37.832031 -12.125 38.65625 -17.539062 38.65625 -24.4375 C 38.65625 -34.476562 37.570312 -41.703125 35.40625 -46.109375 C 33.238281 -50.523438 30.144531 -52.734375 26.125 -52.734375 C 22.269531 -52.734375 19.476562 -50.828125 17.75 -47.015625 C 16.03125 -43.203125 15.171875 -37.84375 15.171875 -30.9375 Z M 15.171875 -30.9375 " fill="#ffffff"/>
          </g>
        </g>
      </g>
      <g fill="#001640" fill-opacity="1">
        <g transform="translate(193.862296, 89.04825)">
          <g>
            <path d="M 19.390625 -56.71875 L 19.390625 -45.15625 L 19.625 -45.15625 C 21.46875 -49.007812 23.394531 -51.898438 25.40625 -53.828125 C 27.414062 -55.753906 29.703125 -56.71875 32.265625 -56.71875 C 34.273438 -56.71875 35.941406 -56.09375 37.265625 -54.84375 C 38.585938 -53.601562 39.25 -52.054688 39.25 -50.203125 C 39.25 -48.679688 38.707031 -47.359375 37.625 -46.234375 C 36.539062 -45.109375 35.238281 -44.546875 33.71875 -44.546875 C 32.351562 -44.546875 31.023438 -45.269531 29.734375 -46.71875 C 29.253906 -47.113281 28.773438 -47.492188 28.296875 -47.859375 C 27.816406 -48.222656 27.296875 -48.40625 26.734375 -48.40625 C 25.441406 -48.40625 24.253906 -47.800781 23.171875 -46.59375 C 22.085938 -45.394531 20.828125 -43.507812 19.390625 -40.9375 L 19.390625 -10.71875 C 19.390625 -7.425781 20.03125 -5.15625 21.3125 -3.90625 C 22.59375 -2.664062 25 -2.046875 28.53125 -2.046875 L 28.53125 0 L 2.28125 0 L 2.28125 -2.046875 C 4.9375 -2.046875 6.84375 -2.75 8 -4.15625 C 9.164062 -5.5625 9.75 -7.789062 9.75 -10.84375 L 9.75 -43.34375 C 9.75 -44.625 9.425781 -45.785156 8.78125 -46.828125 C 8.144531 -47.878906 7.0625 -48.40625 5.53125 -48.40625 C 4.894531 -48.40625 4.09375 -48.242188 3.125 -47.921875 L 2.65625 -49.96875 L 17.34375 -56.71875 Z M 19.390625 -56.71875 " fill="#ffffff"/>
          </g>
        </g>
      </g>
      <g fill="#001640" fill-opacity="1">
        <g transform="translate(226.602705, 89.04825)">
          <g>
            <path d="M 19.03125 -73.09375 L 21.078125 -73.09375 L 21.078125 -55.5 L 31.3125 -55.5 L 31.3125 -51.78125 L 21.078125 -51.78125 L 21.078125 -15.046875 C 21.078125 -11.597656 21.492188 -9.128906 22.328125 -7.640625 C 23.171875 -6.160156 24.476562 -5.421875 26.25 -5.421875 C 28.738281 -5.421875 30.664062 -6.863281 32.03125 -9.75 L 34.3125 -9.75 C 33.1875 -6.382812 31.441406 -3.632812 29.078125 -1.5 C 26.710938 0.625 24.125 1.6875 21.3125 1.6875 C 17.863281 1.6875 15.351562 0.382812 13.78125 -2.21875 C 12.21875 -4.832031 11.4375 -7.945312 11.4375 -11.5625 L 11.4375 -51.78125 L 4.578125 -51.78125 L 4.578125 -54.0625 C 8.265625 -56.226562 11.234375 -58.796875 13.484375 -61.765625 C 15.734375 -64.734375 17.582031 -68.507812 19.03125 -73.09375 Z M 19.03125 -73.09375 " fill="#ffffff"/>
          </g>
        </g>
      </g>
      <g fill="#001640" fill-opacity="1">
        <g transform="translate(254.287194, 89.04825)">
          <g>
            <path d="M 15.65625 -56.71875 C 17.34375 -56.71875 18.867188 -56.472656 20.234375 -55.984375 C 21.597656 -55.503906 22.398438 -55.222656 22.640625 -55.140625 C 23.921875 -54.578125 24.800781 -54.296875 25.28125 -54.296875 C 26.082031 -54.296875 26.726562 -54.695312 27.21875 -55.5 L 29.375 -55.5 L 29.375 -38.296875 L 27.21875 -38.296875 C 26.25 -43.023438 24.78125 -46.671875 22.8125 -49.234375 C 20.84375 -51.804688 18.578125 -53.09375 16.015625 -53.09375 C 14.242188 -53.09375 12.734375 -52.453125 11.484375 -51.171875 C 10.242188 -49.890625 9.625 -48.363281 9.625 -46.59375 C 9.625 -45.3125 9.984375 -43.96875 10.703125 -42.5625 C 11.429688 -41.15625 12.4375 -39.8125 13.71875 -38.53125 L 16.609375 -35.875 C 20.867188 -32.1875 24.523438 -28.695312 27.578125 -25.40625 C 29.503906 -23.238281 30.765625 -21.390625 31.359375 -19.859375 C 31.960938 -18.335938 32.265625 -16.453125 32.265625 -14.203125 C 32.265625 -9.628906 30.835938 -5.835938 27.984375 -2.828125 C 25.140625 0.179688 21.671875 1.6875 17.578125 1.6875 C 15.410156 1.6875 12.757812 1.003906 9.625 -0.359375 C 8.257812 -0.921875 7.335938 -1.203125 6.859375 -1.203125 C 6.460938 -1.203125 6.101562 -1.082031 5.78125 -0.84375 C 5.457031 -0.601562 5.296875 -0.320312 5.296875 0 L 3.125 0 L 3.125 -18.546875 L 5.171875 -18.546875 C 5.660156 -13.484375 6.988281 -9.445312 9.15625 -6.4375 C 11.320312 -3.425781 13.96875 -1.921875 17.09375 -1.921875 C 19.019531 -1.921875 20.664062 -2.722656 22.03125 -4.328125 C 23.394531 -5.941406 24.078125 -7.867188 24.078125 -10.109375 C 24.078125 -13.242188 22.632812 -16.175781 19.75 -18.90625 L 14.8125 -23.359375 L 9.15625 -28.53125 C 7.226562 -30.300781 5.722656 -32.25 4.640625 -34.375 C 3.554688 -36.5 3.015625 -38.96875 3.015625 -41.78125 C 3.015625 -46.195312 4.195312 -49.789062 6.5625 -52.5625 C 8.925781 -55.332031 11.957031 -56.71875 15.65625 -56.71875 Z M 15.65625 -56.71875 " fill="#ffffff"/>
          </g>
        </g>
      </g>
    </g>
  </g>
</svg>